<svg width="727" height="863" viewBox="0 0 727 863" fill="none" xmlns="http://www.w3.org/2000/svg">
<path d="M0 12.2285C0 24.1512 0.304101 24.4569 10.6435 24.4569C20.983 24.4569 21.2871 24.1512 21.2871 12.2285C21.2871 0.305728 20.983 1.71661e-05 10.6435 1.71661e-05C0.304101 1.71661e-05 0 0.305728 0 12.2285Z" fill="url(#paint0_linear_3123_59)"/>
<path d="M702.473 12.2285V24.4569H714.637H726.801V12.2285V1.71661e-05H714.637H702.473V12.2285Z" fill="url(#paint1_linear_3123_59)"/>
<path d="M510.889 14.0631C506.632 14.6745 495.989 16.8145 487.474 18.6487L471.356 21.7059V154.69C471.356 227.755 470.14 287.369 468.924 287.369C467.403 287.369 461.929 285.229 456.455 282.477C450.982 279.726 445.508 278.809 444.291 280.032C441.25 283.395 428.782 333.837 428.782 342.397C428.782 345.76 430.303 348.511 431.823 348.511C433.952 348.511 433.952 350.345 431.823 354.32C424.829 368.077 428.782 383.362 441.555 390.088C446.42 392.534 449.461 395.896 448.549 397.731C445.812 401.705 459.496 427.996 465.883 431.359C471.052 434.11 471.356 442.364 471.356 551.809V669.508H454.631C439.426 669.508 437.601 668.896 433.648 660.642C427.262 648.414 409.016 641.688 380.43 641.382C352.149 640.771 340.593 645.662 336.336 659.419L333.599 669.508H301.668H269.738L271.866 604.086L274.299 538.663L260.919 526.129C246.626 512.678 249.667 509.621 268.825 517.875C294.674 528.881 318.09 562.203 334.511 612.34C339.681 628.543 342.418 632.823 346.067 631.294C357.927 626.708 386.208 626.403 405.975 630.683C417.835 633.128 427.566 634.962 427.87 634.657C428.478 634.045 426.958 618.76 424.525 600.417C405.062 452.147 405.367 364.408 425.133 292.566C428.478 281.255 429.695 271.166 428.174 270.249C426.958 269.332 418.443 275.14 409.624 283.089C363.705 324.971 301.06 331.391 233.55 301.432C229.292 299.597 226.251 303.266 218.04 320.08C204.66 346.371 198.578 366.854 192.8 403.539C187.022 439.919 183.981 539.581 187.022 590.634C189.151 627.931 189.455 629.765 195.841 629.765C202.835 629.765 221.994 640.465 221.994 644.44C221.994 645.662 214.087 645.662 204.66 644.134C183.069 640.465 166.647 646.274 158.741 660.337L153.571 669.508H124.073H94.2715V691.519L94.5756 713.836L128.635 732.179L162.694 750.521L163.606 772.533L164.519 794.849H195.841H227.163L239.632 822.363L252.404 849.877H319.306H386.512L399.893 820.835L413.273 791.792H445.508H477.438V769.475V746.853L510.585 727.899C546.165 707.416 547.382 705.887 547.382 679.902V669.508H516.971H486.561L487.17 548.752L488.082 427.996H481.088C472.877 427.996 462.233 422.799 462.233 419.13C462.233 417.602 465.274 415.462 469.228 414.239C475.614 412.405 475.614 412.099 467.099 409.653C458.888 407.208 453.414 402.011 453.11 396.813C453.11 395.591 459.496 393.756 467.707 392.534L482 390.088L468.619 387.642C456.455 385.502 450.373 381.528 450.069 375.414C450.069 374.497 454.327 372.357 459.801 371.439L469.228 369.299L459.801 365.02C441.25 357.377 451.894 339.34 475.006 339.34H486.561V241.512V143.685H515.147C530.96 143.685 559.85 146.436 579.312 149.799C619.758 156.83 632.226 157.136 653.209 152.856C669.022 149.187 706.122 131.456 707.643 126.565C708.251 124.731 692.742 116.782 672.975 108.834C653.209 100.885 635.875 93.2423 634.658 91.7137C633.138 90.4909 636.483 88.0452 641.653 85.9052C651.08 82.8481 696.391 41.2714 696.391 36.0743C696.391 34.8514 683.01 34.5457 666.893 35.4629C631.313 37.9085 601.816 33.6286 575.055 22.9287C556.505 15.2859 527.007 11.3117 510.889 14.0631ZM357.927 347.288C364.313 349.123 364.921 350.345 363.401 365.02C362.488 373.579 361.272 396.813 360.056 416.379L358.231 452.453L287.071 453.064C247.842 453.37 213.479 453.676 210.742 453.676C202.227 453.981 203.444 393.451 212.263 368.688C215.912 358.905 219.257 350.345 219.865 349.734C225.643 343.925 336.944 342.091 357.927 347.288ZM445.204 377.859C444.291 381.834 442.163 384.585 440.946 383.668C436.689 381.222 435.777 371.439 438.514 363.797L441.555 356.154L444.291 363.185C445.812 367.159 446.116 373.579 445.204 377.859ZM208.309 717.199C319.61 725.147 384.079 730.65 385.6 732.179C386.512 733.096 383.167 733.707 378.302 734.013C373.436 734.013 366.138 734.624 361.88 735.236C357.623 735.847 313.832 738.599 264.568 741.656L174.554 746.547L140.495 729.427C121.641 719.95 106.436 711.696 106.436 710.779C106.436 709.862 114.342 709.862 124.073 710.779C133.5 711.696 171.513 714.447 208.309 717.199ZM339.985 793.321C339.377 794.238 318.698 798.824 294.674 804.021L250.883 812.886L244.193 805.244C240.24 800.964 237.199 796.378 237.199 794.544C237.199 793.015 258.79 791.792 289.504 791.792C318.09 791.792 340.897 792.404 339.985 793.321Z" fill="url(#paint2_linear_3123_59)"/>
<path d="M267.609 356.459C228.988 359.822 228.988 359.822 223.515 375.413C220.778 383.362 217.737 401.093 216.824 414.85L215 440.224H280.381H345.763L347.588 414.85C348.804 401.093 349.716 382.445 349.716 373.579V357.682H328.733C317.482 357.682 301.973 357.071 294.674 356.459C287.376 355.848 275.212 355.848 267.609 356.459ZM331.47 397.73V422.187L320.219 421.27L308.663 420.353L307.75 400.787C306.534 375.413 307.75 372.968 320.827 372.968H331.47V397.73ZM252.1 391.31C256.053 402.927 251.796 415.767 243.889 415.767C235.679 415.767 231.117 409.653 231.117 398.953C231.117 380.916 246.322 375.413 252.1 391.31ZM289.504 389.782C294.674 401.399 289.504 414.239 279.773 414.239C274.299 414.239 271.562 411.793 269.434 405.984C265.48 394.979 271.258 382.139 279.773 382.139C283.422 382.139 287.376 385.196 289.504 389.782Z" fill="url(#paint3_linear_3123_59)"/>
<path d="M271.562 48.6077C256.661 54.1106 235.678 66.6447 237.807 68.7847C238.415 69.3961 244.801 68.479 252.404 67.2561C304.101 57.1677 355.494 70.619 386.512 102.413C407.495 123.813 415.098 140.627 415.098 166.612C414.794 231.423 349.108 274.223 267.001 263.217C253.316 261.383 241.76 260.466 241.152 261.077C239.328 262.606 258.182 273.305 270.65 277.891C300.756 288.591 334.511 287.062 364.009 273.611C382.559 265.051 408.103 242.429 417.226 225.614C423.004 215.22 425.133 213.997 435.777 213.997C443.987 213.997 447.028 212.775 445.812 210.023C433.648 180.981 432.431 151.021 442.163 130.844C448.853 117.393 448.549 116.17 436.385 116.17C426.958 116.17 424.829 114.336 415.706 99.9672C402.325 79.1789 383.471 62.3648 362.184 52.2763C339.073 41.5764 295.586 39.7421 271.562 48.6077Z" fill="url(#paint4_linear_3123_59)"/>
<path d="M261.527 76.7332C213.175 86.2102 182.157 126.564 186.414 174.255C190.976 225.615 240.848 258.937 303.797 252.211C394.115 242.429 433.344 166.612 377.389 110.361C362.184 95.0759 332.078 80.7074 307.142 76.7332C284.639 73.0647 280.685 73.0647 261.527 76.7332ZM239.023 104.553C238.415 106.693 234.462 118.004 230.813 129.316C222.298 156.524 223.514 193.515 233.854 213.386C237.503 220.723 239.936 227.449 239.023 228.366C235.678 231.729 218.649 214.609 211.35 200.546C196.753 171.504 202.836 130.844 225.339 109.75C235.07 100.579 242.064 98.133 239.023 104.553Z" fill="url(#paint5_linear_3123_59)"/>
<path d="M52.6095 117.087C47.7439 124.424 37.4045 134.207 29.802 139.404L16.1174 148.575L27.6733 155.301C34.3635 159.275 44.7029 169.058 51.3931 177.006L62.9489 191.986L74.5048 178.229C80.5868 170.892 91.2303 160.804 97.9205 155.912L109.78 147.047L100.962 142.461C95.7918 139.71 85.1483 130.233 76.9376 120.756L62.0366 103.942L52.6095 117.087Z" fill="url(#paint6_linear_3123_59)"/>
<path d="M448.853 139.098C445.812 147.047 446.724 188.929 449.766 191.069C454.935 194.126 457.064 185.872 457.064 162.638C456.76 140.321 452.807 128.704 448.853 139.098Z" fill="url(#paint7_linear_3123_59)"/>
<path d="M590.26 232.952C584.482 239.677 574.75 248.849 568.364 253.74L556.504 262.3L568.364 269.943C575.055 274.528 584.786 283.394 590.26 290.12L599.991 302.348L608.202 291.037C612.459 284.923 622.19 275.751 629.489 270.554C641.044 262.606 641.653 261.077 637.091 258.326C627.056 252.517 610.33 236.926 605.465 228.672L600.295 220.723L590.26 232.952Z" fill="url(#paint8_linear_3123_59)"/>
<path d="M396.852 269.026C387.729 279.114 355.494 292.871 332.079 297.151C307.446 301.431 278.557 297.457 257.574 287.063C242.977 280.032 240.24 279.726 240.24 285.534C240.24 291.649 266.393 302.043 291.633 305.711C318.698 309.991 347.284 306.017 369.787 295.011C388.033 286.146 414.794 263.217 407.192 262.912C404.455 262.912 399.893 265.663 396.852 269.026Z" fill="url(#paint9_linear_3123_59)"/>
<path d="M130.764 287.063L120.12 298.068L131.068 308.768L141.711 319.468L152.659 308.462L163.607 297.151L152.355 286.451L141.407 276.057L130.764 287.063Z" fill="url(#paint10_linear_3123_59)"/>
<path d="M492.643 324.665C492.643 339.645 493.556 342.396 500.55 346.676C507.848 351.873 508.152 352.79 507.544 383.056C507.24 412.098 507.544 414.238 512.714 413.321C521.229 411.487 525.486 407.207 529.135 395.896C535.522 376.636 518.796 331.696 498.725 313.354C492.643 307.851 492.643 308.157 492.643 324.665Z" fill="url(#paint11_linear_3123_59)"/>
<path d="M179.723 363.491C169.08 384.585 155.091 424.633 155.091 433.804C155.091 439.001 156.916 440.224 165.127 440.224H175.162L178.811 411.793C180.636 396.507 184.589 375.413 187.022 365.631C189.759 355.848 190.975 346.982 190.367 346.371C189.455 345.454 184.893 353.096 179.723 363.491Z" fill="url(#paint12_linear_3123_59)"/>
<path d="M84.8447 390.088C79.6749 396.507 84.8447 405.067 94.5759 405.067C100.05 405.067 102.178 403.233 102.787 397.73C104.611 386.113 92.4472 380.916 84.8447 390.088Z" fill="url(#paint13_linear_3123_59)"/>
<path d="M659.595 390.088C654.425 396.507 659.595 405.067 669.326 405.067C674.8 405.067 676.929 403.233 677.537 397.73C679.361 386.113 667.197 380.916 659.595 390.088Z" fill="url(#paint14_linear_3123_59)"/>
<path d="M144.752 466.515C142.015 487.915 142.623 504.118 146.273 511.455C152.051 522.46 161.782 531.938 167.864 531.938C172.729 531.938 173.338 528.575 173.338 492.195V452.453H159.957H146.881L144.752 466.515Z" fill="url(#paint15_linear_3123_59)"/>
<path d="M559.546 489.443L548.902 500.755L559.546 512.677L570.189 524.294L580.833 512.066L591.476 499.838L580.833 489.138L570.189 478.132L559.546 489.443Z" fill="url(#paint16_linear_3123_59)"/>
<path d="M81.499 571.986L70.8555 582.991L82.7154 595.525C89.1015 602.557 94.2712 606.837 94.2712 605.002C94.2712 603.474 98.8327 597.665 104.611 592.163L114.95 582.38L103.698 571.68L92.1425 560.98L81.499 571.986Z" fill="url(#paint17_linear_3123_59)"/>
<path d="M614.892 601.946C612.459 603.168 611.243 607.754 611.851 611.728C612.459 617.231 614.588 619.065 620.366 619.065C626.144 619.065 628.272 617.231 628.88 611.728C629.793 605.614 625.535 599.194 620.366 599.194C619.453 599.194 617.021 600.417 614.892 601.946Z" fill="url(#paint18_linear_3123_59)"/>
<path d="M0 849.878C0 861.8 0.304101 862.106 10.6435 862.106C20.983 862.106 21.2871 861.8 21.2871 849.878C21.2871 837.955 20.983 837.649 10.6435 837.649C0.304101 837.649 0 837.955 0 849.878Z" fill="url(#paint19_linear_3123_59)"/>
<path d="M702.473 849.878V862.106H714.637H726.801V849.878V837.649H714.637H702.473V849.878Z" fill="url(#paint20_linear_3123_59)"/>
<defs>
<linearGradient id="paint0_linear_3123_59" x1="10.6435" y1="1.71661e-05" x2="10.6435" y2="24.4569" gradientUnits="userSpaceOnUse">
<stop stop-color="#B440EB"/>
<stop offset="1" stop-color="#520B74"/>
</linearGradient>
<linearGradient id="paint1_linear_3123_59" x1="714.637" y1="1.71661e-05" x2="714.637" y2="24.4569" gradientUnits="userSpaceOnUse">
<stop stop-color="#B440EB"/>
<stop offset="1" stop-color="#520B74"/>
</linearGradient>
<linearGradient id="paint2_linear_3123_59" x1="400.966" y1="13.1907" x2="400.966" y2="849.877" gradientUnits="userSpaceOnUse">
<stop stop-color="#B440EB"/>
<stop offset="1" stop-color="#520B74"/>
</linearGradient>
<linearGradient id="paint3_linear_3123_59" x1="282.358" y1="356.001" x2="282.358" y2="440.224" gradientUnits="userSpaceOnUse">
<stop stop-color="#B440EB"/>
<stop offset="1" stop-color="#520B74"/>
</linearGradient>
<linearGradient id="paint4_linear_3123_59" x1="342.094" y1="42.9605" x2="342.094" y2="284.939" gradientUnits="userSpaceOnUse">
<stop stop-color="#B440EB"/>
<stop offset="1" stop-color="#520B74"/>
</linearGradient>
<linearGradient id="paint5_linear_3123_59" x1="294.668" y1="73.9818" x2="294.668" y2="253.072" gradientUnits="userSpaceOnUse">
<stop stop-color="#B440EB"/>
<stop offset="1" stop-color="#520B74"/>
</linearGradient>
<linearGradient id="paint6_linear_3123_59" x1="62.9489" y1="103.942" x2="62.9489" y2="191.986" gradientUnits="userSpaceOnUse">
<stop stop-color="#B440EB"/>
<stop offset="1" stop-color="#520B74"/>
</linearGradient>
<linearGradient id="paint7_linear_3123_59" x1="452.021" y1="135.253" x2="452.021" y2="191.68" gradientUnits="userSpaceOnUse">
<stop stop-color="#B440EB"/>
<stop offset="1" stop-color="#520B74"/>
</linearGradient>
<linearGradient id="paint8_linear_3123_59" x1="598.122" y1="220.723" x2="598.122" y2="302.348" gradientUnits="userSpaceOnUse">
<stop stop-color="#B440EB"/>
<stop offset="1" stop-color="#520B74"/>
</linearGradient>
<linearGradient id="paint9_linear_3123_59" x1="324.379" y1="262.912" x2="324.379" y2="307.398" gradientUnits="userSpaceOnUse">
<stop stop-color="#B440EB"/>
<stop offset="1" stop-color="#520B74"/>
</linearGradient>
<linearGradient id="paint10_linear_3123_59" x1="141.863" y1="276.057" x2="141.863" y2="319.468" gradientUnits="userSpaceOnUse">
<stop stop-color="#B440EB"/>
<stop offset="1" stop-color="#520B74"/>
</linearGradient>
<linearGradient id="paint11_linear_3123_59" x1="511.58" y1="310.154" x2="511.58" y2="413.481" gradientUnits="userSpaceOnUse">
<stop stop-color="#B440EB"/>
<stop offset="1" stop-color="#520B74"/>
</linearGradient>
<linearGradient id="paint12_linear_3123_59" x1="172.806" y1="346.296" x2="172.806" y2="440.224" gradientUnits="userSpaceOnUse">
<stop stop-color="#B440EB"/>
<stop offset="1" stop-color="#520B74"/>
</linearGradient>
<linearGradient id="paint13_linear_3123_59" x1="92.8876" y1="385.397" x2="92.8876" y2="405.067" gradientUnits="userSpaceOnUse">
<stop stop-color="#B440EB"/>
<stop offset="1" stop-color="#520B74"/>
</linearGradient>
<linearGradient id="paint14_linear_3123_59" x1="667.638" y1="385.397" x2="667.638" y2="405.067" gradientUnits="userSpaceOnUse">
<stop stop-color="#B440EB"/>
<stop offset="1" stop-color="#520B74"/>
</linearGradient>
<linearGradient id="paint15_linear_3123_59" x1="158.194" y1="452.453" x2="158.194" y2="531.938" gradientUnits="userSpaceOnUse">
<stop stop-color="#B440EB"/>
<stop offset="1" stop-color="#520B74"/>
</linearGradient>
<linearGradient id="paint16_linear_3123_59" x1="570.189" y1="478.132" x2="570.189" y2="524.294" gradientUnits="userSpaceOnUse">
<stop stop-color="#B440EB"/>
<stop offset="1" stop-color="#520B74"/>
</linearGradient>
<linearGradient id="paint17_linear_3123_59" x1="92.9028" y1="560.98" x2="92.9028" y2="605.427" gradientUnits="userSpaceOnUse">
<stop stop-color="#B440EB"/>
<stop offset="1" stop-color="#520B74"/>
</linearGradient>
<linearGradient id="paint18_linear_3123_59" x1="620.35" y1="599.194" x2="620.35" y2="619.065" gradientUnits="userSpaceOnUse">
<stop stop-color="#B440EB"/>
<stop offset="1" stop-color="#520B74"/>
</linearGradient>
<linearGradient id="paint19_linear_3123_59" x1="10.6435" y1="837.649" x2="10.6435" y2="862.106" gradientUnits="userSpaceOnUse">
<stop stop-color="#B440EB"/>
<stop offset="1" stop-color="#520B74"/>
</linearGradient>
<linearGradient id="paint20_linear_3123_59" x1="714.637" y1="837.649" x2="714.637" y2="862.106" gradientUnits="userSpaceOnUse">
<stop stop-color="#B440EB"/>
<stop offset="1" stop-color="#520B74"/>
</linearGradient>
</defs>
</svg>
