<svg width="2399" height="863" viewBox="0 0 2399 863" fill="none" xmlns="http://www.w3.org/2000/svg">
<path d="M0 12.2285C0 24.1512 0.304101 24.4569 10.6435 24.4569C20.983 24.4569 21.2871 24.1512 21.2871 12.2285C21.2871 0.305728 20.983 1.71661e-05 10.6435 1.71661e-05C0.304101 1.71661e-05 0 0.305728 0 12.2285Z" fill="url(#paint0_linear_3123_94)"/>
<path d="M702.473 12.2285V24.4569H714.637H726.801V12.2285V1.71661e-05H714.637H702.473V12.2285Z" fill="url(#paint1_linear_3123_94)"/>
<path d="M510.889 14.0631C506.632 14.6745 495.989 16.8145 487.474 18.6487L471.356 21.7059V154.69C471.356 227.755 470.14 287.369 468.924 287.369C467.403 287.369 461.929 285.229 456.455 282.477C450.982 279.726 445.508 278.809 444.291 280.032C441.25 283.395 428.782 333.837 428.782 342.397C428.782 345.76 430.303 348.511 431.823 348.511C433.952 348.511 433.952 350.345 431.823 354.32C424.829 368.077 428.782 383.362 441.555 390.088C446.42 392.534 449.461 395.896 448.549 397.731C445.812 401.705 459.496 427.996 465.883 431.359C471.052 434.11 471.356 442.364 471.356 551.809V669.508H454.631C439.426 669.508 437.601 668.896 433.648 660.642C427.262 648.414 409.016 641.688 380.43 641.382C352.149 640.771 340.593 645.662 336.336 659.419L333.599 669.508H301.668H269.738L271.866 604.086L274.299 538.663L260.919 526.129C246.626 512.678 249.667 509.621 268.825 517.875C294.674 528.881 318.09 562.203 334.511 612.34C339.681 628.543 342.418 632.823 346.067 631.294C357.927 626.708 386.208 626.403 405.975 630.683C417.835 633.128 427.566 634.962 427.87 634.657C428.478 634.045 426.958 618.76 424.525 600.417C405.062 452.147 405.367 364.408 425.133 292.566C428.478 281.255 429.695 271.166 428.174 270.249C426.958 269.332 418.443 275.14 409.624 283.089C363.705 324.971 301.06 331.391 233.55 301.432C229.292 299.597 226.251 303.266 218.04 320.08C204.66 346.371 198.578 366.854 192.8 403.539C187.022 439.919 183.981 539.581 187.022 590.634C189.151 627.931 189.455 629.765 195.841 629.765C202.835 629.765 221.994 640.465 221.994 644.44C221.994 645.662 214.087 645.662 204.66 644.134C183.069 640.465 166.647 646.274 158.741 660.337L153.571 669.508H124.073H94.2715V691.519L94.5756 713.836L128.635 732.179L162.694 750.521L163.606 772.533L164.519 794.849H195.841H227.163L239.632 822.363L252.404 849.877H319.306H386.512L399.893 820.835L413.273 791.792H445.508H477.438V769.475V746.853L510.585 727.899C546.165 707.416 547.382 705.887 547.382 679.902V669.508H516.971H486.561L487.17 548.752L488.082 427.996H481.088C472.877 427.996 462.233 422.799 462.233 419.13C462.233 417.602 465.274 415.462 469.228 414.239C475.614 412.405 475.614 412.099 467.099 409.653C458.888 407.208 453.414 402.011 453.11 396.813C453.11 395.591 459.496 393.756 467.707 392.534L482 390.088L468.619 387.642C456.455 385.502 450.373 381.528 450.069 375.414C450.069 374.497 454.327 372.357 459.801 371.439L469.228 369.299L459.801 365.02C441.25 357.377 451.894 339.34 475.006 339.34H486.561V241.512V143.685H515.147C530.96 143.685 559.85 146.436 579.312 149.799C619.758 156.83 632.226 157.136 653.209 152.856C669.022 149.187 706.122 131.456 707.643 126.565C708.251 124.731 692.742 116.782 672.975 108.834C653.209 100.885 635.875 93.2423 634.658 91.7137C633.138 90.4909 636.483 88.0452 641.653 85.9052C651.08 82.8481 696.391 41.2714 696.391 36.0743C696.391 34.8514 683.01 34.5457 666.893 35.4629C631.313 37.9085 601.816 33.6286 575.055 22.9287C556.505 15.2859 527.007 11.3117 510.889 14.0631ZM357.927 347.288C364.313 349.123 364.921 350.345 363.401 365.02C362.488 373.579 361.272 396.813 360.056 416.379L358.231 452.453L287.071 453.064C247.842 453.37 213.479 453.676 210.742 453.676C202.227 453.981 203.444 393.451 212.263 368.688C215.912 358.905 219.257 350.345 219.865 349.734C225.643 343.925 336.944 342.091 357.927 347.288ZM445.204 377.859C444.291 381.834 442.163 384.585 440.946 383.668C436.689 381.222 435.777 371.439 438.514 363.797L441.555 356.154L444.291 363.185C445.812 367.159 446.116 373.579 445.204 377.859ZM208.309 717.199C319.61 725.147 384.079 730.65 385.6 732.179C386.512 733.096 383.167 733.707 378.302 734.013C373.436 734.013 366.138 734.624 361.88 735.236C357.623 735.847 313.832 738.599 264.568 741.656L174.554 746.547L140.495 729.427C121.641 719.95 106.436 711.696 106.436 710.779C106.436 709.862 114.342 709.862 124.073 710.779C133.5 711.696 171.513 714.447 208.309 717.199ZM339.985 793.321C339.377 794.238 318.698 798.824 294.674 804.021L250.883 812.886L244.193 805.244C240.24 800.964 237.199 796.378 237.199 794.544C237.199 793.015 258.79 791.792 289.504 791.792C318.09 791.792 340.897 792.404 339.985 793.321Z" fill="url(#paint2_linear_3123_94)"/>
<path d="M267.609 356.459C228.988 359.822 228.988 359.822 223.515 375.413C220.778 383.362 217.737 401.093 216.824 414.85L215 440.224H280.381H345.763L347.588 414.85C348.804 401.093 349.716 382.445 349.716 373.579V357.682H328.733C317.482 357.682 301.973 357.071 294.674 356.459C287.376 355.848 275.212 355.848 267.609 356.459ZM331.47 397.73V422.187L320.219 421.27L308.663 420.353L307.75 400.787C306.534 375.413 307.75 372.968 320.827 372.968H331.47V397.73ZM252.1 391.31C256.053 402.927 251.796 415.767 243.889 415.767C235.679 415.767 231.117 409.653 231.117 398.953C231.117 380.916 246.322 375.413 252.1 391.31ZM289.504 389.782C294.674 401.399 289.504 414.239 279.773 414.239C274.299 414.239 271.562 411.793 269.434 405.984C265.48 394.979 271.258 382.139 279.773 382.139C283.422 382.139 287.376 385.196 289.504 389.782Z" fill="url(#paint3_linear_3123_94)"/>
<path d="M271.562 48.6077C256.661 54.1106 235.678 66.6447 237.807 68.7847C238.415 69.3961 244.801 68.479 252.404 67.2561C304.101 57.1677 355.494 70.619 386.512 102.413C407.495 123.813 415.098 140.627 415.098 166.612C414.794 231.423 349.108 274.223 267.001 263.217C253.316 261.383 241.76 260.466 241.152 261.077C239.328 262.606 258.182 273.305 270.65 277.891C300.756 288.591 334.511 287.062 364.009 273.611C382.559 265.051 408.103 242.429 417.226 225.614C423.004 215.22 425.133 213.997 435.777 213.997C443.987 213.997 447.028 212.775 445.812 210.023C433.648 180.981 432.431 151.021 442.163 130.844C448.853 117.393 448.549 116.17 436.385 116.17C426.958 116.17 424.829 114.336 415.706 99.9672C402.325 79.1789 383.471 62.3648 362.184 52.2763C339.073 41.5764 295.586 39.7421 271.562 48.6077Z" fill="url(#paint4_linear_3123_94)"/>
<path d="M261.527 76.7332C213.175 86.2102 182.157 126.564 186.414 174.255C190.976 225.615 240.848 258.937 303.797 252.211C394.115 242.429 433.344 166.612 377.389 110.361C362.184 95.0759 332.078 80.7074 307.142 76.7332C284.639 73.0647 280.685 73.0647 261.527 76.7332ZM239.023 104.553C238.415 106.693 234.462 118.004 230.813 129.316C222.298 156.524 223.514 193.515 233.854 213.386C237.503 220.723 239.936 227.449 239.023 228.366C235.678 231.729 218.649 214.609 211.35 200.546C196.753 171.504 202.836 130.844 225.339 109.75C235.07 100.579 242.064 98.133 239.023 104.553Z" fill="url(#paint5_linear_3123_94)"/>
<path d="M52.6095 117.087C47.7439 124.424 37.4045 134.207 29.802 139.404L16.1174 148.575L27.6733 155.301C34.3635 159.275 44.7029 169.058 51.3931 177.006L62.9489 191.986L74.5048 178.229C80.5868 170.892 91.2303 160.804 97.9205 155.912L109.78 147.047L100.962 142.461C95.7918 139.71 85.1483 130.233 76.9376 120.756L62.0366 103.942L52.6095 117.087Z" fill="url(#paint6_linear_3123_94)"/>
<path d="M448.853 139.098C445.812 147.047 446.724 188.929 449.766 191.069C454.935 194.126 457.064 185.872 457.064 162.638C456.76 140.321 452.807 128.704 448.853 139.098Z" fill="url(#paint7_linear_3123_94)"/>
<path d="M590.26 232.952C584.482 239.677 574.75 248.849 568.364 253.74L556.504 262.3L568.364 269.943C575.055 274.528 584.786 283.394 590.26 290.12L599.991 302.348L608.202 291.037C612.459 284.923 622.19 275.751 629.489 270.554C641.044 262.606 641.653 261.077 637.091 258.326C627.056 252.517 610.33 236.926 605.465 228.672L600.295 220.723L590.26 232.952Z" fill="url(#paint8_linear_3123_94)"/>
<path d="M396.852 269.026C387.729 279.114 355.494 292.871 332.079 297.151C307.446 301.431 278.557 297.457 257.574 287.063C242.977 280.032 240.24 279.726 240.24 285.534C240.24 291.649 266.393 302.043 291.633 305.711C318.698 309.991 347.284 306.017 369.787 295.011C388.033 286.146 414.794 263.217 407.192 262.912C404.455 262.912 399.893 265.663 396.852 269.026Z" fill="url(#paint9_linear_3123_94)"/>
<path d="M130.764 287.063L120.12 298.068L131.068 308.768L141.711 319.468L152.659 308.462L163.607 297.151L152.355 286.451L141.407 276.057L130.764 287.063Z" fill="url(#paint10_linear_3123_94)"/>
<path d="M492.643 324.665C492.643 339.645 493.556 342.396 500.55 346.676C507.848 351.873 508.152 352.79 507.544 383.056C507.24 412.098 507.544 414.238 512.714 413.321C521.229 411.487 525.486 407.207 529.135 395.896C535.522 376.636 518.796 331.696 498.725 313.354C492.643 307.851 492.643 308.157 492.643 324.665Z" fill="url(#paint11_linear_3123_94)"/>
<path d="M179.723 363.491C169.08 384.585 155.091 424.633 155.091 433.804C155.091 439.001 156.916 440.224 165.127 440.224H175.162L178.811 411.793C180.636 396.507 184.589 375.413 187.022 365.631C189.759 355.848 190.975 346.982 190.367 346.371C189.455 345.454 184.893 353.096 179.723 363.491Z" fill="url(#paint12_linear_3123_94)"/>
<path d="M84.8447 390.088C79.6749 396.507 84.8447 405.067 94.5759 405.067C100.05 405.067 102.178 403.233 102.787 397.73C104.611 386.113 92.4472 380.916 84.8447 390.088Z" fill="url(#paint13_linear_3123_94)"/>
<path d="M659.595 390.088C654.425 396.507 659.595 405.067 669.326 405.067C674.8 405.067 676.929 403.233 677.537 397.73C679.361 386.113 667.197 380.916 659.595 390.088Z" fill="url(#paint14_linear_3123_94)"/>
<path d="M144.752 466.515C142.015 487.915 142.623 504.118 146.273 511.455C152.051 522.46 161.782 531.938 167.864 531.938C172.729 531.938 173.338 528.575 173.338 492.195V452.453H159.957H146.881L144.752 466.515Z" fill="url(#paint15_linear_3123_94)"/>
<path d="M559.546 489.443L548.902 500.755L559.546 512.677L570.189 524.294L580.833 512.066L591.476 499.838L580.833 489.138L570.189 478.132L559.546 489.443Z" fill="url(#paint16_linear_3123_94)"/>
<path d="M81.499 571.986L70.8555 582.991L82.7154 595.525C89.1015 602.557 94.2712 606.837 94.2712 605.002C94.2712 603.474 98.8327 597.665 104.611 592.163L114.95 582.38L103.698 571.68L92.1425 560.98L81.499 571.986Z" fill="url(#paint17_linear_3123_94)"/>
<path d="M614.892 601.946C612.459 603.168 611.243 607.754 611.851 611.728C612.459 617.231 614.588 619.065 620.366 619.065C626.144 619.065 628.272 617.231 628.88 611.728C629.793 605.614 625.535 599.194 620.366 599.194C619.453 599.194 617.021 600.417 614.892 601.946Z" fill="url(#paint18_linear_3123_94)"/>
<path d="M0 849.878C0 861.8 0.304101 862.106 10.6435 862.106C20.983 862.106 21.2871 861.8 21.2871 849.878C21.2871 837.955 20.983 837.649 10.6435 837.649C0.304101 837.649 0 837.955 0 849.878Z" fill="url(#paint19_linear_3123_94)"/>
<path d="M702.473 849.878V862.106H714.637H726.801V849.878V837.649H714.637H702.473V849.878Z" fill="url(#paint20_linear_3123_94)"/>
<path d="M828.351 616.114C809.193 627.731 797.637 668.085 800.982 712.718C804.327 758.269 818.62 782.115 845.381 786.395C852.375 787.618 858.153 790.369 859.066 793.426C859.978 796.178 863.323 801.68 866.364 805.655L871.838 812.992L881.265 806.266C890.692 799.54 890.692 799.54 885.826 789.146C880.961 779.058 881.265 778.752 888.867 769.275C901.031 754.907 904.681 738.092 904.681 695.904C904.681 661.053 903.768 656.162 896.47 640.265C890.996 628.648 884.914 620.699 878.224 616.419C865.148 608.471 841.124 608.165 828.351 616.114ZM866.972 655.245C872.75 672.059 871.838 731.061 865.756 745.43C860.282 758.881 852.375 760.409 843.556 750.627C838.995 745.43 837.778 738.398 836.866 710.884C835.346 670.225 837.778 651.576 845.685 643.628C853.592 635.679 861.802 640.265 866.972 655.245Z" fill="#1E1E1E"/>
<path d="M850.551 652.187C849.334 653.104 848.422 656.773 848.422 660.136C848.422 663.499 849.334 665.333 850.551 664.416C851.463 663.193 854.2 663.804 856.633 665.639C860.89 669.307 861.498 667.473 858.762 656.773C856.937 650.047 854.2 648.519 850.551 652.187Z" fill="#1E1E1E"/>
<path d="M1011.12 617.031C1007.16 634.151 979.185 776.918 979.185 780.587C979.185 783.338 984.051 784.561 995.607 784.561H1012.33L1014.46 770.804L1016.29 756.741L1030.27 757.658C1044.26 758.576 1044.57 758.576 1047 771.415L1049.43 784.561H1066.16C1075.28 784.561 1082.58 783.338 1082.58 782.115C1082.58 780.893 1074.98 742.067 1065.85 695.905C1056.73 649.742 1049.13 611.834 1049.13 611.223C1049.13 610.611 1040.92 610.306 1030.88 610.306C1014.46 610.306 1012.64 610.917 1011.12 617.031ZM1033.92 697.128C1033.92 699.268 1034.84 707.522 1035.75 715.47C1037.88 729.227 1037.57 729.533 1029.36 729.533C1023.58 729.533 1021.46 728.31 1022.67 725.253C1023.58 723.113 1025.41 714.859 1026.32 706.91C1027.54 699.268 1029.67 692.848 1031.19 692.848C1032.71 692.848 1033.92 694.682 1033.92 697.128Z" fill="#1E1E1E"/>
<path d="M1173.51 610.917C1172.9 613.974 1161.95 764.078 1161.65 772.944V784.561H1178.07H1194.18L1196.31 768.358C1197.23 759.798 1198.14 746.347 1198.14 738.704C1198.44 711.496 1203 716.387 1210.3 750.933L1217.3 784.866L1231.28 783.949L1245.27 783.032L1252.88 747.875C1259.87 714.859 1260.48 713.33 1262.61 724.947C1263.82 731.673 1264.74 744.818 1265.04 753.99C1265.34 783.032 1266.26 784.561 1285.11 784.561C1296.36 784.561 1301.53 783.338 1301.53 780.586C1301.53 778.752 1298.8 740.538 1295.45 695.905C1292.1 651.271 1289.37 613.668 1289.37 612.445C1289.37 611.223 1281.46 610.305 1272.03 610.917L1254.7 611.834L1243.45 663.805C1237.06 692.236 1231.89 716.387 1231.59 717.304C1231.28 718.221 1226.42 697.433 1220.64 671.448C1215.17 645.462 1209.69 621.005 1208.78 617.031C1207.26 611.223 1205.13 610.305 1190.54 610.305C1181.41 610.305 1173.81 610.611 1173.51 610.917Z" fill="#1E1E1E"/>
<path d="M1414.05 611.529C1414.05 612.14 1406.45 650.048 1397.32 695.599C1388.2 741.15 1380.6 779.975 1380.6 781.504C1380.6 783.338 1387.9 784.561 1397.02 784.561H1413.75L1416.18 771.415C1418.61 758.576 1418.92 758.576 1432.9 757.658L1446.89 756.741L1448.72 770.804L1450.85 784.561H1467.57C1479.13 784.561 1483.99 783.338 1483.99 780.587C1483.99 776.918 1456.02 634.151 1452.06 617.031C1450.54 610.917 1448.72 610.306 1432.3 610.306C1422.26 610.306 1414.05 610.917 1414.05 611.529ZM1439.9 722.502C1441.42 728.616 1440.2 729.533 1432.6 729.533H1423.78L1426.82 714.859C1431.38 692.236 1432.9 690.096 1435.64 703.548C1437.16 710.273 1438.99 718.833 1439.9 722.502Z" fill="#1E1E1E"/>
<path d="M1564.58 613.668C1563.67 616.114 1563.36 655.245 1563.67 700.49L1564.58 783.032L1582.22 783.949L1599.55 784.866V752.461C1599.55 723.113 1600.16 720.361 1605.33 720.361C1609.89 720.361 1612.93 726.781 1620.84 752.461L1630.87 784.561H1648.51H1665.85L1655.2 750.627L1644.86 716.693L1652.16 708.439C1664.02 695.905 1667.06 687.039 1667.37 666.862C1667.67 642.711 1659.76 626.814 1643.65 618.254C1628.44 610.305 1567.32 606.943 1564.58 613.668ZM1628.14 644.545C1630.87 648.519 1633 657.691 1633 665.639C1633 684.593 1624.49 695.905 1609.89 695.905H1599.55V666.862V637.819H1611.41C1620.53 637.819 1624.79 639.654 1628.14 644.545Z" fill="#1E1E1E"/>
<path d="M1608.67 651.27C1608.67 655.856 1611.41 659.525 1616.58 661.97C1624.18 665.333 1624.49 665.027 1622.66 658.607C1621.75 654.633 1620.84 650.659 1620.84 649.742C1620.84 648.519 1618.1 646.99 1614.76 646.073C1609.89 644.85 1608.67 646.073 1608.67 651.27Z" fill="#1E1E1E"/>
<path d="M1751.6 697.433V784.561H1768.33H1785.05V747.876V711.19H1798.74H1812.42V698.962V686.733H1798.74H1785.05V662.277V638.125L1804.21 637.208L1823.06 636.291V624.063V611.834L1787.49 610.917L1751.6 610V697.433Z" fill="#1E1E1E"/>
<path d="M1906.69 697.433V784.561H1943.18H1979.68V772.333V760.104H1959.91H1940.14V685.205V610.306H1923.42H1906.69V697.433Z" fill="#1E1E1E"/>
<path d="M2084.29 613.056C2073.64 617.642 2062.09 634.15 2056.92 652.187C2053.27 665.333 2052.36 678.173 2053.27 706.298C2054.18 738.092 2055.4 745.735 2061.78 758.575C2072.43 779.363 2082.46 786.089 2103.75 786.089C2125.34 786.089 2137.5 778.14 2147.54 757.658C2153.32 745.429 2154.53 737.481 2155.45 706.298C2156.97 661.664 2152.1 640.265 2136.59 623.451C2127.47 613.362 2124.73 612.139 2108.62 611.222C2098.88 610.916 2087.94 611.528 2084.29 613.056ZM2114.7 648.213C2120.48 655.55 2121.08 661.053 2121.08 696.821C2121.08 742.678 2117.43 755.518 2104.36 755.518C2093.71 755.518 2088.24 742.372 2086.72 712.107C2084.9 678.784 2088.24 655.244 2095.84 645.462C2103.14 636.29 2106.18 636.596 2114.7 648.213Z" fill="#1E1E1E"/>
<path d="M2100.1 654.633C2099.19 657.385 2098.28 661.97 2098.28 664.722C2098.28 669.002 2098.88 669.002 2101.01 665.639C2102.53 663.499 2105.27 662.582 2107.4 663.805C2109.83 665.333 2110.74 663.805 2109.83 658.913C2108.62 650.659 2102.84 647.908 2100.1 654.633Z" fill="#1E1E1E"/>
<path d="M2229.04 612.751C2229.04 613.974 2236.64 652.8 2245.76 698.962C2254.89 745.124 2262.49 783.338 2262.49 783.644C2262.49 784.255 2271 784.561 2281.34 783.95L2300.5 783.032L2306.89 746.347C2313.58 706.299 2314.19 706.299 2322.09 753.073L2327.26 784.561H2346.12H2364.67L2380.79 704.159C2389.6 660.137 2397.51 621.006 2398.42 617.031C2399.94 610.306 2399.64 610 2382.31 610.917L2364.36 611.834L2355.54 658.608C2350.98 684.288 2346.42 704.77 2345.51 704.159C2344.9 703.242 2341.56 685.816 2338.21 665.028C2328.78 604.497 2331.22 610 2313.27 610.917L2297.46 611.834L2289.56 660.748C2284.99 687.651 2281.34 708.745 2281.04 707.828C2279.82 701.408 2262.49 611.834 2262.49 610.917C2262.49 609.083 2229.04 610.611 2229.04 612.751Z" fill="#1E1E1E"/>
<path d="M1794.18 651.576C1794.18 658.913 1795.09 659.219 1812.42 659.219C1829.75 659.219 1830.67 658.913 1830.67 651.576C1830.67 644.239 1829.75 643.933 1812.42 643.933C1795.09 643.933 1794.18 644.239 1794.18 651.576Z" fill="#1E1E1E"/>
<path d="M1672.53 695.293C1672.53 697.127 1668.58 703.241 1663.72 709.05C1657.03 716.387 1655.51 720.361 1657.63 723.724C1660.07 727.392 1660.98 727.087 1664.32 721.89C1669.8 713.024 1675.88 695.293 1674.06 693.458C1673.14 692.541 1672.53 693.458 1672.53 695.293Z" fill="#1E1E1E"/>
<path d="M1794.18 731.367C1794.18 738.398 1795.09 739.01 1807.25 738.093C1817.89 737.481 1820.33 735.953 1820.94 730.144C1821.85 724.03 1820.63 723.418 1808.16 723.418C1795.09 723.418 1794.18 724.03 1794.18 731.367Z" fill="#1E1E1E"/>
<path d="M1608.98 753.99C1608.98 756.435 1610.19 761.327 1611.71 764.689C1613.24 768.664 1614.45 768.969 1614.45 766.218C1614.45 763.772 1613.24 758.881 1611.71 755.518C1610.19 751.544 1608.98 751.238 1608.98 753.99Z" fill="#1E1E1E"/>
<path d="M797.029 755.824C796.725 757.658 798.854 765.301 801.286 772.638C807.673 790.675 822.574 805.349 838.387 809.629C848.118 812.075 852.984 815.437 858.153 823.692C862.107 829.806 866.06 835.92 867.276 837.449C869.101 840.506 900.119 822.774 900.119 818.494C900.119 817.577 898.903 814.826 897.686 812.992C895.862 810.24 892.213 811.157 883.698 816.966C877.616 821.246 870.317 823.997 868.189 823.08C865.756 822.163 860.89 816.049 856.937 809.323C852.984 801.986 847.51 796.789 844.469 796.789C829.264 796.789 807.673 778.752 800.07 759.798C798.55 755.824 797.029 753.989 797.029 755.824Z" fill="#1E1E1E"/>
<path d="M2046.58 754.601C2046.58 761.633 2059.96 790.675 2065.74 796.178C2075.16 805.044 2092.8 812.075 2105.88 812.075C2128.69 812.075 2152.71 791.592 2157.58 767.747C2159.4 759.493 2159.1 759.187 2155.75 764.69C2143.28 785.784 2125.95 796.789 2105.57 796.789C2083.38 796.789 2066.35 787.007 2055.7 768.053C2050.53 759.493 2046.58 753.378 2046.58 754.601Z" fill="#1E1E1E"/>
<path d="M900.727 770.192C893.429 784.255 892.517 787.618 896.774 787.618C899.815 787.618 911.067 760.715 908.938 758.575C908.026 757.964 904.377 763.161 900.727 770.192Z" fill="#1E1E1E"/>
<path d="M1024.8 768.969C1024.8 770.498 1024.19 773.555 1023.28 776.001C1022.06 778.752 1024.19 779.975 1029.36 779.975C1035.14 779.975 1036.96 778.447 1036.96 772.944C1036.96 768.358 1035.14 766.218 1030.88 766.218C1027.54 766.218 1024.8 767.441 1024.8 768.969Z" fill="#1E1E1E"/>
<path d="M1426.21 772.944C1426.21 778.141 1428.04 779.975 1433.21 779.975C1438.99 779.975 1439.9 778.752 1438.99 772.944C1438.07 768.969 1435.34 766.218 1431.99 766.218C1428.04 766.218 1426.21 768.358 1426.21 772.944Z" fill="#1E1E1E"/>
<path d="M1615.97 776.918C1616.88 780.28 1619.01 788.84 1621.14 795.872L1624.79 809.017H1650.34C1664.02 809.017 1675.58 808.1 1675.58 807.183C1675.58 806.266 1674.06 802.903 1672.54 799.54C1669.8 794.649 1665.85 793.732 1646.38 793.732C1627.53 793.732 1623.27 792.815 1622.05 788.229C1621.14 785.478 1619.01 780.28 1617.49 776.918L1614.76 770.803L1615.97 776.918Z" fill="#1E1E1E"/>
<path d="M972.191 795.872C970.975 796.789 970.062 800.457 970.062 803.515C970.062 808.406 972.799 809.017 994.39 809.017C1018.41 809.017 1018.72 809.017 1018.72 801.375C1018.72 794.037 1018.11 793.732 996.519 793.732C984.051 793.732 973.103 794.649 972.191 795.872Z" fill="#1E1E1E"/>
<path d="M1040.01 796.483C1040.01 807.183 1043.96 809.017 1067.68 809.017C1091.4 809.017 1093.53 808.1 1089.88 798.623C1088.36 794.649 1083.19 793.732 1064.03 793.732C1050.95 793.732 1040.01 794.955 1040.01 796.483Z" fill="#1E1E1E"/>
<path d="M1154.65 795.872C1153.44 796.789 1152.52 800.457 1152.52 803.515C1152.52 808.406 1155.26 809.017 1176.85 809.017C1200.87 809.017 1201.18 809.017 1201.18 801.375C1201.18 794.037 1200.57 793.732 1178.98 793.732C1166.51 793.732 1155.56 794.649 1154.65 795.872Z" fill="#1E1E1E"/>
<path d="M1210.3 801.375C1210.3 809.323 1210.61 809.323 1230.98 808.406C1249.53 807.489 1251.36 806.878 1252.27 800.458C1253.18 794.038 1252.27 793.732 1231.89 793.732C1210.91 793.732 1210.3 794.038 1210.3 801.375Z" fill="#1E1E1E"/>
<path d="M1258.96 801.375C1258.96 809.017 1259.26 809.017 1283.29 809.017C1307.31 809.017 1307.61 809.017 1307.61 801.375C1307.61 793.732 1307.31 793.732 1283.29 793.732C1259.26 793.732 1258.96 793.732 1258.96 801.375Z" fill="#1E1E1E"/>
<path d="M1373.6 795.872C1372.39 796.789 1371.48 800.457 1371.48 803.515C1371.48 808.406 1374.21 809.017 1395.5 809.017C1419.22 809.017 1423.17 807.183 1423.17 796.483C1423.17 793.426 1376.64 792.509 1373.6 795.872Z" fill="#1E1E1E"/>
<path d="M1444.46 801.375C1444.46 809.017 1444.76 809.017 1469.09 809.017C1492.81 809.017 1493.42 808.712 1492.51 801.986C1491.6 795.872 1489.77 795.26 1468.18 794.343C1444.46 793.426 1444.46 793.426 1444.46 801.375Z" fill="#1E1E1E"/>
<path d="M1556.98 801.375C1556.98 809.017 1557.28 809.017 1581.3 809.017C1605.33 809.017 1605.63 809.017 1605.63 801.375C1605.63 793.732 1605.33 793.732 1581.3 793.732C1557.28 793.732 1556.98 793.732 1556.98 801.375Z" fill="#1E1E1E"/>
<path d="M1744.61 795.872C1743.39 796.789 1742.48 800.457 1742.48 803.515C1742.48 808.406 1745.22 809.017 1766.81 809.017C1790.83 809.017 1791.13 809.017 1791.13 801.375C1791.13 794.037 1790.53 793.732 1768.94 793.732C1756.47 793.732 1745.52 794.649 1744.61 795.872Z" fill="#1E1E1E"/>
<path d="M1899.7 795.872C1898.48 796.789 1897.57 800.457 1897.57 803.515C1897.57 808.712 1900.91 809.017 1941.66 809.017H1985.76V801.375V793.732H1943.79C1920.68 793.732 1900.61 794.649 1899.7 795.872Z" fill="#1E1E1E"/>
<path d="M2254.58 798.623C2255.5 801.375 2256.41 804.737 2256.41 806.266C2256.41 807.794 2267.96 809.017 2282.26 809.017C2307.8 809.017 2308.11 809.017 2308.11 801.375C2308.11 793.732 2307.8 793.732 2280.43 793.732C2256.41 793.732 2253.06 794.343 2254.58 798.623Z" fill="#1E1E1E"/>
<path d="M2320.27 801.375C2320.27 809.017 2320.57 809.017 2346.12 809.017C2371.66 809.017 2371.97 809.017 2371.97 801.375C2371.97 793.732 2371.66 793.732 2346.12 793.732C2320.57 793.732 2320.27 793.732 2320.27 801.375Z" fill="#1E1E1E"/>
<defs>
<linearGradient id="paint0_linear_3123_94" x1="10.6435" y1="1.71661e-05" x2="10.6435" y2="24.4569" gradientUnits="userSpaceOnUse">
<stop stop-color="#B440EB"/>
<stop offset="1" stop-color="#520B74"/>
</linearGradient>
<linearGradient id="paint1_linear_3123_94" x1="714.637" y1="1.71661e-05" x2="714.637" y2="24.4569" gradientUnits="userSpaceOnUse">
<stop stop-color="#B440EB"/>
<stop offset="1" stop-color="#520B74"/>
</linearGradient>
<linearGradient id="paint2_linear_3123_94" x1="400.966" y1="13.1907" x2="400.966" y2="849.877" gradientUnits="userSpaceOnUse">
<stop stop-color="#B440EB"/>
<stop offset="1" stop-color="#520B74"/>
</linearGradient>
<linearGradient id="paint3_linear_3123_94" x1="282.358" y1="356.001" x2="282.358" y2="440.224" gradientUnits="userSpaceOnUse">
<stop stop-color="#B440EB"/>
<stop offset="1" stop-color="#520B74"/>
</linearGradient>
<linearGradient id="paint4_linear_3123_94" x1="342.094" y1="42.9605" x2="342.094" y2="284.939" gradientUnits="userSpaceOnUse">
<stop stop-color="#B440EB"/>
<stop offset="1" stop-color="#520B74"/>
</linearGradient>
<linearGradient id="paint5_linear_3123_94" x1="294.668" y1="73.9818" x2="294.668" y2="253.072" gradientUnits="userSpaceOnUse">
<stop stop-color="#B440EB"/>
<stop offset="1" stop-color="#520B74"/>
</linearGradient>
<linearGradient id="paint6_linear_3123_94" x1="62.9489" y1="103.942" x2="62.9489" y2="191.986" gradientUnits="userSpaceOnUse">
<stop stop-color="#B440EB"/>
<stop offset="1" stop-color="#520B74"/>
</linearGradient>
<linearGradient id="paint7_linear_3123_94" x1="452.021" y1="135.253" x2="452.021" y2="191.68" gradientUnits="userSpaceOnUse">
<stop stop-color="#B440EB"/>
<stop offset="1" stop-color="#520B74"/>
</linearGradient>
<linearGradient id="paint8_linear_3123_94" x1="598.122" y1="220.723" x2="598.122" y2="302.348" gradientUnits="userSpaceOnUse">
<stop stop-color="#B440EB"/>
<stop offset="1" stop-color="#520B74"/>
</linearGradient>
<linearGradient id="paint9_linear_3123_94" x1="324.379" y1="262.912" x2="324.379" y2="307.398" gradientUnits="userSpaceOnUse">
<stop stop-color="#B440EB"/>
<stop offset="1" stop-color="#520B74"/>
</linearGradient>
<linearGradient id="paint10_linear_3123_94" x1="141.863" y1="276.057" x2="141.863" y2="319.468" gradientUnits="userSpaceOnUse">
<stop stop-color="#B440EB"/>
<stop offset="1" stop-color="#520B74"/>
</linearGradient>
<linearGradient id="paint11_linear_3123_94" x1="511.58" y1="310.154" x2="511.58" y2="413.481" gradientUnits="userSpaceOnUse">
<stop stop-color="#B440EB"/>
<stop offset="1" stop-color="#520B74"/>
</linearGradient>
<linearGradient id="paint12_linear_3123_94" x1="172.806" y1="346.296" x2="172.806" y2="440.224" gradientUnits="userSpaceOnUse">
<stop stop-color="#B440EB"/>
<stop offset="1" stop-color="#520B74"/>
</linearGradient>
<linearGradient id="paint13_linear_3123_94" x1="92.8876" y1="385.397" x2="92.8876" y2="405.067" gradientUnits="userSpaceOnUse">
<stop stop-color="#B440EB"/>
<stop offset="1" stop-color="#520B74"/>
</linearGradient>
<linearGradient id="paint14_linear_3123_94" x1="667.638" y1="385.397" x2="667.638" y2="405.067" gradientUnits="userSpaceOnUse">
<stop stop-color="#B440EB"/>
<stop offset="1" stop-color="#520B74"/>
</linearGradient>
<linearGradient id="paint15_linear_3123_94" x1="158.194" y1="452.453" x2="158.194" y2="531.938" gradientUnits="userSpaceOnUse">
<stop stop-color="#B440EB"/>
<stop offset="1" stop-color="#520B74"/>
</linearGradient>
<linearGradient id="paint16_linear_3123_94" x1="570.189" y1="478.132" x2="570.189" y2="524.294" gradientUnits="userSpaceOnUse">
<stop stop-color="#B440EB"/>
<stop offset="1" stop-color="#520B74"/>
</linearGradient>
<linearGradient id="paint17_linear_3123_94" x1="92.9028" y1="560.98" x2="92.9028" y2="605.427" gradientUnits="userSpaceOnUse">
<stop stop-color="#B440EB"/>
<stop offset="1" stop-color="#520B74"/>
</linearGradient>
<linearGradient id="paint18_linear_3123_94" x1="620.35" y1="599.194" x2="620.35" y2="619.065" gradientUnits="userSpaceOnUse">
<stop stop-color="#B440EB"/>
<stop offset="1" stop-color="#520B74"/>
</linearGradient>
<linearGradient id="paint19_linear_3123_94" x1="10.6435" y1="837.649" x2="10.6435" y2="862.106" gradientUnits="userSpaceOnUse">
<stop stop-color="#B440EB"/>
<stop offset="1" stop-color="#520B74"/>
</linearGradient>
<linearGradient id="paint20_linear_3123_94" x1="714.637" y1="837.649" x2="714.637" y2="862.106" gradientUnits="userSpaceOnUse">
<stop stop-color="#B440EB"/>
<stop offset="1" stop-color="#520B74"/>
</linearGradient>
</defs>
</svg>
